<?xml version="1.0" standalone="no"?>
<!DOCTYPE svg PUBLIC "-//W3C//DTD SVG 20010904//EN"
 "http://www.w3.org/TR/2001/REC-SVG-20010904/DTD/svg10.dtd">
<svg version="1.0" xmlns="http://www.w3.org/2000/svg"
 width="84.000000pt" height="84.000000pt" viewBox="0 0 84.000000 84.000000"
 preserveAspectRatio="xMidYMid meet">

<g transform="translate(0.000000,84.000000) scale(0.100000,-0.100000)"
fill="#000000" stroke="none">
<path d="M351 770 c-186 -39 -315 -225 -282 -407 37 -197 220 -328 408 -294
239 45 366 292 261 510 -31 66 -116 145 -180 169 -66 25 -149 33 -207 22z
m192 -30 c65 -24 130 -78 169 -139 43 -68 39 -71 -56 -48 l-83 20 -17 71 c-9
39 -21 78 -27 86 -8 12 -9 9 -5 -10 4 -14 13 -51 20 -82 8 -32 11 -59 8 -60
-4 -2 -66 -1 -138 2 l-132 5 20 80 c11 44 26 83 32 87 24 16 155 8 209 -12z
m-243 -17 c0 -5 -7 -40 -16 -79 l-17 -71 -71 -17 c-39 -9 -78 -21 -86 -27 -12
-8 -9 -9 10 -5 14 4 51 13 82 20 32 8 59 11 60 8 2 -4 1 -66 -2 -138 l-5 -132
-80 20 c-44 11 -83 26 -87 32 -4 6 -8 43 -8 83 0 120 48 215 143 284 38 27 77
38 77 22z m257 -166 c11 -11 10 -263 0 -274 -10 -10 -262 -11 -272 -1 -11 11
-19 179 -11 231 6 40 11 46 34 50 44 8 240 2 249 -6z m118 -23 c39 -9 73 -22
77 -28 9 -13 10 -142 2 -173 -4 -13 -10 -21 -14 -18 -4 3 -41 -4 -81 -14 -41
-10 -76 -18 -79 -16 -3 2 -4 64 -2 139 2 99 6 134 15 132 7 -2 44 -12 82 -22z
m-479 -250 l71 -17 18 -74 c9 -41 15 -77 11 -80 -30 -30 -186 113 -186 171 0
20 0 20 86 0z m534 -2 c0 -36 -63 -111 -129 -153 -68 -44 -71 -40 -48 55 l20
83 61 16 c83 20 96 20 96 -1z m-174 -35 c-2 -7 -12 -43 -22 -82 -9 -38 -22
-73 -28 -77 -13 -9 -142 -10 -173 -2 -13 4 -21 10 -18 14 3 4 -4 41 -14 81
-10 41 -18 76 -16 79 2 3 64 4 139 2 99 -2 134 -6 132 -15z"/>
</g>
</svg>
