<svg width="371" height="190" viewBox="0 0 371 190" fill="none" xmlns="http://www.w3.org/2000/svg">
<g clip-path="url(#clip0_851_117)">
<path d="M6.44736 190C6.06607 182.951 5.71944 175.868 5.33814 168.82C4.81819 159.974 4.26358 151.129 3.70897 142.284C3.46633 138.345 3.32768 134.406 2.94638 130.502C2.53043 125.837 1.87182 121.173 1.38654 116.508C0.901256 111.947 0.415971 107.421 0.173329 102.86C-0.381282 93.0822 0.72794 83.4077 2.14913 73.7678C2.98105 68.1704 3.98628 62.573 5.06084 57.0102C5.71944 53.6241 7.10596 50.5145 9.0471 47.6121C10.7109 45.0899 12.4441 42.6021 14.0733 40.0799C14.5239 39.3888 15.0092 39.1815 15.8064 39.3197C18.4408 39.8034 19.9313 40.9782 20.278 43.5005C20.9366 48.3377 22.8084 52.7603 24.4029 57.2866C25.2001 59.5325 25.7548 61.8474 26.4134 64.0933C26.4134 64.197 26.4827 64.3006 26.4827 64.4388C27.0373 67.894 25.7201 70.1053 22.3578 71.0037C19.2381 71.8329 16.985 73.7332 15.3211 76.3592C14.1079 78.225 13.5187 80.3672 13.3107 82.5785C13.1374 84.5479 13.1374 86.5174 12.9987 88.4868C12.9294 89.4543 12.8254 90.4563 12.6867 91.4237C12.4094 93.6005 11.4042 95.3972 9.7057 96.7447C8.59648 97.6085 8.24985 98.645 8.73513 99.958C9.25508 101.306 9.74037 102.688 10.295 104.001C10.8496 105.279 11.5082 106.523 12.0975 107.767C12.964 109.632 13.1374 111.395 11.6815 113.122C11.2309 113.675 11.0229 114.401 10.5723 115.23C11.9588 115.575 13.068 115.852 14.1773 116.128C15.5291 116.474 16.881 116.785 18.2328 117.13C21.4912 117.994 23.571 120.102 24.5762 123.246C24.8188 124.075 25.0268 124.904 25.3041 125.768C24.8535 125.975 24.5762 126.148 24.2642 126.252C21.8725 127.012 20.07 128.601 18.8914 130.709C16.257 135.339 15.2518 140.314 16.0837 145.601C16.465 148.123 17.5742 150.369 19.0648 152.373C20.3473 154.101 21.7338 155.725 23.051 157.418C23.3283 157.763 23.571 158.178 23.8829 158.661C22.4618 159.698 21.1099 160.7 19.758 161.667C17.5742 163.257 15.7371 165.157 14.2119 167.403C12.5481 169.891 11.6815 172.62 11.6122 175.592C11.5775 177.596 11.1616 179.496 10.5376 181.362C9.56705 184.368 8.28451 187.27 6.44736 189.931V190Z" fill="#3C3C3B"/>
<path d="M135.949 64.8882C136.434 64.6463 136.608 64.6118 136.712 64.5081C140.143 60.9838 144.164 58.2197 148.185 55.4555C152.483 52.4841 156.782 49.4781 161.045 46.4375C161.946 45.7811 162.848 44.9173 163.437 43.9844C166.071 39.5272 171.687 41.1166 173.697 44.1226C174.321 45.0555 174.564 46.1266 174.286 47.2668C173.732 49.6854 172.241 51.2402 169.954 52.104C169.295 52.3459 168.636 52.5878 168.047 52.9678C162.085 57.1486 156.158 61.3293 150.23 65.5447C148.462 66.7885 146.729 68.0324 144.961 69.2762C144.684 69.4835 144.441 69.7254 144.129 70.0018C144.441 70.4164 144.684 70.7965 144.996 71.142C155.118 82.7514 165.239 94.3263 175.361 105.936C175.95 106.627 176.574 107.076 177.475 107.352C178.273 107.594 179.035 108.147 179.625 108.769C180.734 109.909 180.976 111.257 180.318 112.777C178.654 116.508 173.42 118.374 169.746 116.474C168.81 115.99 168.22 115.265 167.908 114.263C167.7 113.675 167.423 113.088 167.042 112.604C158.792 103.206 150.507 93.8771 142.327 84.479C140.351 82.1986 138.687 79.6763 136.885 77.2577C136.608 76.8776 136.33 76.463 135.845 75.7374C135.741 76.463 135.672 76.774 135.672 77.1195C135.533 82.5787 135.394 88.0033 135.221 93.4625C135.117 97.0558 134.978 100.649 134.805 104.243C134.77 105.417 134.874 106.488 135.464 107.594C137.058 110.669 135.498 114.124 132.171 115.057C129.71 115.748 127.318 115.645 125.065 114.401C122.084 112.777 121.252 109.356 123.054 106.523C123.366 106.005 123.678 105.383 123.713 104.795C123.817 102.066 123.817 99.3708 123.886 96.6412C123.99 92.4259 124.163 88.176 124.302 83.9607C124.579 75.8065 124.822 67.6178 125.099 59.4635C125.203 56.1811 125.307 52.8642 125.342 49.5472C125.342 49.0289 125.273 48.5106 125.065 48.0269C123.47 43.9498 125.758 40.2528 130.091 39.9073C131.859 39.7691 133.592 40.08 135.117 41.0129C137.37 42.395 138.237 44.5372 137.266 46.9904C136.573 48.6489 136.4 50.3419 136.365 52.0695C136.33 54.9718 136.33 57.8742 136.261 60.7765C136.261 62.0895 136.053 63.4024 135.949 64.9918V64.8882Z" fill="#3C3C3B"/>
<path d="M228.708 90.0073C221.012 90.2146 213.352 90.4564 205.657 90.6637C204.339 90.6983 203.404 91.1129 202.745 92.4259C201.428 95.0864 199.903 97.6087 198.481 100.2C197.719 101.582 197.026 102.964 196.332 104.381C195.327 106.385 194.842 108.527 194.911 110.773C194.911 111.533 194.842 112.293 194.772 113.019C194.599 114.746 193.629 115.921 192.034 116.508C189.954 117.234 187.84 117.407 185.691 116.75C182.952 115.921 181.427 113.433 182.155 110.669C182.64 108.907 183.299 107.145 184.166 105.521C188.602 97.1595 193.039 88.8325 197.58 80.5401C202.294 71.9022 207.147 63.2988 211.896 54.6608C212.659 53.2788 213.352 51.8967 213.941 50.4455C214.357 49.3744 214.6 48.2342 214.808 47.094C215.085 45.3319 215.57 43.7425 216.714 42.3259C219.071 39.4926 223.508 39.5617 226.039 41.5312C227.46 42.6368 228.153 44.2262 227.494 45.8502C226.281 48.787 227.079 51.4475 228.222 54.0735C230.475 59.3599 232.833 64.5772 235.12 69.8291C239.869 80.6783 244.653 91.4584 249.263 102.342C250.442 105.106 251.204 108.043 251.759 110.98C252.729 115.783 249.124 119.791 243.336 118.616C242.538 118.443 241.776 118.167 241.082 117.752C239.315 116.75 238.656 115.161 239.003 113.191C239.107 112.673 239.211 112.155 239.384 111.671C239.8 110.358 239.835 109.045 239.384 107.732C237.893 103.517 236.368 99.3362 234.843 95.1555C234.358 93.808 233.769 92.4604 233.214 91.1129C232.821 90.1685 232.082 89.7309 230.995 89.8C230.233 89.8691 229.47 89.8691 228.742 89.9382C228.742 89.9382 228.742 89.9382 228.742 89.9727L228.708 90.0073ZM228.604 80.9547C228.43 79.1235 221.082 60.8456 220.007 59.5672C216.229 66.8922 212.485 74.148 208.568 81.7149C215.466 81.6457 222.018 81.3002 228.604 80.9547Z" fill="#3C3C3B"/>
<path d="M351.45 93.4627C350.861 93.4627 350.167 93.4627 349.474 93.4627C342.68 93.7045 335.852 93.9119 329.058 94.1537C327.186 94.2228 325.349 94.2919 323.477 94.3265C322.887 94.3265 322.506 94.5338 322.229 95.0866C319.976 99.3365 317.653 103.552 315.435 107.836C314.395 109.875 313.944 112.086 313.944 114.401C313.944 114.816 313.944 115.196 313.944 115.61C313.84 118.547 312.523 120.102 309.577 120.551C307.913 120.828 306.214 120.897 304.551 120.344C302.263 119.584 300.946 117.891 301.05 115.541C301.119 114.366 301.362 113.088 301.847 112.017C303.303 108.804 304.828 105.59 306.526 102.515C314.603 87.7616 322.749 73.0426 330.895 58.3236C332.42 55.5594 333.598 52.7607 334.049 49.5474C334.742 44.4683 340.323 42.0843 344.587 44.8484C346.32 45.9541 346.944 47.4398 346.528 49.4438C346.528 49.6165 346.528 49.7893 346.424 49.9621C345.349 52.1388 345.904 54.2465 346.77 56.3196C349.024 61.6405 351.277 66.9961 353.599 72.2825C358.556 83.4772 363.859 94.4992 368.227 105.901C369.163 108.389 369.925 110.946 370.653 113.503C371.104 115.092 371.104 116.716 370.515 118.305C369.613 120.689 367.915 122.072 365.35 122.348C363.582 122.555 361.849 122.348 360.254 121.519C358.487 120.586 357.759 119.238 358.001 117.234C358.036 116.785 358.071 116.301 358.244 115.887C358.972 114.056 358.764 112.224 358.105 110.462C356.06 105.003 353.911 99.5438 351.831 94.0846C351.762 93.9464 351.658 93.8082 351.45 93.4972V93.4627ZM339.456 63.299C339.283 63.299 339.11 63.299 338.902 63.299C337.654 65.6831 336.406 68.1017 335.158 70.4858C333.876 72.9735 332.593 75.4267 331.38 77.9144C330.201 80.2985 328.607 82.5098 327.706 85.1357C328.122 85.2394 328.26 85.3085 328.434 85.3085C334.361 85.1357 340.288 84.963 346.216 84.7902C346.736 84.7902 347.29 84.5829 347.914 84.4792C345.003 77.2925 342.195 70.313 339.387 63.3681L339.456 63.299Z" fill="#3C3C3B"/>
<path d="M285.659 55.4903C285.555 57.4252 285.382 59.3256 285.313 61.2259C285.139 67.8253 285.001 74.4247 284.827 81.024C284.619 88.6254 284.377 96.1923 284.134 103.794C284.065 105.487 283.961 107.145 283.891 108.838C283.857 110.289 283.891 111.671 284.481 113.088C285.417 115.438 284.203 117.96 281.846 118.996C279.593 119.964 277.201 120.137 274.844 119.515C273.25 119.1 272.279 118.029 272.002 116.336C271.759 114.816 271.898 113.364 272.245 111.844C272.522 110.6 272.695 109.356 272.765 108.078C272.972 103.034 273.076 97.9889 273.25 92.9789C273.492 85.4467 273.735 77.9144 273.943 70.4167C274.082 66.0977 274.186 61.7442 274.29 57.1833C273.423 57.2524 272.661 57.2525 271.863 57.3561C268.432 57.9089 264.965 58.4618 261.534 59.0491C260.806 59.1873 260.112 59.5674 259.385 59.7402C258.483 59.9475 257.582 60.293 256.681 60.2239C254.046 60.0857 252.313 58.6691 251.863 56.4578C251.308 53.7973 252.591 50.7913 254.809 49.7547C256.196 49.0982 257.651 49.1328 259.038 49.7202C259.974 50.1002 260.806 50.1002 261.742 49.9275C265.624 49.2364 269.541 48.6491 273.423 47.9235C274.428 47.7507 275.468 47.4052 276.369 46.9215C278.449 45.8158 280.633 45.3321 282.921 45.9195C284.203 46.265 285.451 46.2304 286.699 46.0231C291.067 45.3667 295.434 44.7447 299.836 44.0882C300.703 43.95 301.535 43.7082 302.402 43.5009C302.748 43.4318 303.06 43.2936 303.407 43.2244C305.556 42.8789 307.636 42.8789 309.23 44.6756C310.859 46.5414 310.79 48.7527 310.027 50.9295C309.473 52.5189 308.225 53.5554 306.526 53.7282C305.244 53.8664 303.892 53.59 302.575 53.4863C301.708 53.4172 300.842 53.2099 300.01 53.3481C295.504 53.9355 291.032 54.592 286.526 55.2139C286.248 55.2485 285.971 55.3867 285.659 55.4903Z" fill="#3C3C3B"/>
<path d="M72.6887 101.479C73.174 102.308 73.4859 102.999 73.9366 103.552C75.4617 105.314 76.259 107.353 76.7789 109.633C78.2001 115.956 79.656 122.279 81.2158 128.602C82.2904 132.956 82.6717 137.413 83.157 141.835C83.8156 147.64 84.3355 153.479 84.8208 159.318C85.0634 162.255 85.1674 165.227 85.0981 168.267C84.8901 167.991 84.5782 167.749 84.4395 167.438C83.5729 165.158 82.7063 162.912 81.9438 160.597C79.968 154.55 78.0268 148.469 76.1897 142.388C75.7044 140.764 75.5311 139.002 75.3924 137.274C75.2538 135.478 75.3924 133.681 75.3578 131.884C75.3578 130.917 75.2191 129.915 75.0458 128.948C74.7685 127.324 73.7979 126.218 72.2727 125.665C71.4062 125.354 70.5049 125.043 69.6383 124.698C66.9693 123.592 65.964 120.586 67.3852 118.029C67.5585 117.718 67.7319 117.442 67.9398 117.131C68.5984 116.232 68.5984 115.3 68.1478 114.332C67.7665 113.537 67.3159 112.812 66.8653 112.052C66.172 110.842 65.4441 109.668 64.8548 108.389C63.9882 106.558 63.8149 104.623 64.3349 102.619C65.4441 98.231 66.5186 93.8429 67.5932 89.4549C67.6972 89.0057 67.8358 88.5565 68.0092 88.0037C70.3663 87.6582 72.1687 88.6256 73.5899 90.4223C74.2832 91.2861 74.8031 92.2536 75.4271 93.1519C77.1602 95.6396 78.4774 96.1925 81.3891 95.3632C83.157 94.8449 84.9941 94.2921 86.554 93.3592C90.0203 91.3207 93.3133 89.0748 96.6756 86.8635C96.8489 86.7598 96.9529 86.5525 96.9876 86.0688C96.2943 86.2416 95.601 86.4143 94.9424 86.6562C92.2734 87.4854 89.6043 88.3492 86.7619 88.2456C85.722 88.2456 84.6475 88.0382 83.7116 87.6927C82.6024 87.3127 81.7358 86.518 81.4585 85.1705C82.0131 85.1705 82.4984 85.0668 82.9143 85.1705C84.8901 85.7233 86.8313 85.3432 88.7724 84.9977C92.308 84.3412 95.8784 83.7538 99.4487 83.1665C99.8993 83.0974 100.35 83.1665 100.87 83.1665C100.697 84.514 100.073 85.5851 99.2753 86.4834C96.2943 89.7313 93.4173 93.0828 90.1936 96.1234C86.6926 99.4058 82.3597 101.03 77.4722 101.099C75.9817 101.099 74.4912 101.306 72.7233 101.444L72.6887 101.479Z" fill="#3C3C3B"/>
<path d="M85.2021 55.9393C86.6926 56.8377 88.0791 57.6669 89.4657 58.4616C91.9267 59.8782 94.4225 61.2603 96.8489 62.746C99.6913 64.5082 102.152 66.6849 103.574 69.8637C105.237 73.6644 104.509 78.0179 101.632 80.9893C101.355 81.2658 101.043 81.4385 100.523 81.8186C100.523 80.7129 100.523 79.8837 100.523 79.0199C100.558 76.0139 99.5526 73.3534 97.8541 70.9002C95.7744 67.8942 92.9666 65.6138 90.1243 63.4025C85.4101 59.7055 80.2799 56.8377 74.5605 55.0064C73.4166 54.6264 72.3074 54.1081 70.7822 53.4862C71.6141 53.1752 72.0647 52.9679 72.5154 52.8297C74.3179 52.2423 76.1897 51.724 77.9575 51.033C82.0824 49.3745 81.8051 43.8117 78.8587 41.9113C76.6749 40.4947 74.4912 39.009 72.2034 37.7997C64.8201 33.8608 57.1596 30.4747 49.4297 27.1923C46.7606 26.0521 44.0916 24.8773 41.4918 23.5989C40.2439 23.0115 39.1347 22.1823 37.9562 21.4567C37.9562 21.3185 37.9908 21.1803 38.0255 21.0421C38.5455 20.973 39.1001 20.9039 39.62 20.8693C44.5768 20.5584 49.499 21.0075 54.4212 21.664C56.3277 21.9404 58.2341 22.0786 60.1406 22.3205C63.5723 22.7697 66.8999 23.7717 69.881 25.4647C73.8326 27.676 77.7148 30.0255 81.4931 32.5133C83.3996 33.7917 85.0981 35.4502 86.6579 37.1432C90.2976 41.1166 90.9215 45.3319 88.1138 50.031C87.4552 51.1366 86.8313 52.2423 86.242 53.3825C85.8607 54.1426 85.5487 54.9373 85.1328 55.9048L85.2021 55.9393Z" fill="#3C3C3B"/>
<path d="M21.6298 43.9847C21.2485 42.3954 20.7286 40.7714 20.4859 39.1475C19.6193 33.792 18.7528 28.4019 18.0595 23.0118C17.7822 20.9042 17.8169 18.7274 17.9209 16.5852C18.0595 13.8556 19.0647 11.4024 20.5206 9.12203C22.8084 5.4941 26.2054 2.93727 29.6023 -0.0341797C29.4984 1.52065 29.3944 2.76451 29.2904 4.04292C29.0477 7.5672 29.5677 10.9533 30.7462 14.3048C31.8208 17.3453 33.034 20.3859 33.3806 23.6338C33.5886 25.465 33.8313 27.3308 33.7273 29.162C33.3113 35.3813 29.7757 39.7694 24.7495 43.0864C23.8829 43.6392 22.947 44.1575 21.6298 43.9847Z" fill="#3C3C3B"/>
<path d="M322.264 152.684C319.075 152.787 315.886 152.926 312.662 152.96C311.518 152.96 310.859 153.375 310.374 154.411C309.785 155.655 309.057 156.864 308.364 158.074C307.67 159.249 307.289 160.492 307.22 161.84C307.081 164.259 305.937 165.157 303.58 164.811C301.951 164.57 301.084 163.464 301.5 161.874C301.812 160.7 302.332 159.594 302.887 158.523C306.7 151.509 310.582 144.495 314.43 137.481C315.227 135.995 315.955 134.51 316.302 132.851C316.787 130.571 318.659 129.603 320.6 130.502C321.674 130.985 322.09 131.711 321.778 132.851C321.432 134.129 321.674 135.27 322.16 136.41C323.962 140.556 325.834 144.668 327.636 148.814C329.127 152.269 330.583 155.724 332.004 159.214C332.385 160.181 332.593 161.218 332.801 162.22C333.009 163.36 332.732 164.431 331.692 165.122C330.583 165.848 329.37 165.779 328.191 165.295C327.324 164.95 326.874 164.155 327.151 163.153C327.567 161.598 327.186 160.181 326.666 158.765C326.111 157.245 325.522 155.724 324.898 154.239C324.205 152.58 324.17 152.58 322.298 152.718L322.264 152.684ZM322.437 148.296C321.258 145.186 320.011 142.145 318.589 139.036C317.237 140.867 313.84 147.674 313.667 148.745C316.128 149.021 320.461 148.814 322.437 148.296Z" fill="#3C3C3B"/>
<path d="M255.468 151.129C253.596 151.129 251.759 151.129 249.887 151.129C249.263 151.129 248.778 151.302 248.466 151.924C247.495 153.79 246.386 155.552 245.519 157.452C245.069 158.489 244.93 159.664 244.757 160.804C244.514 162.462 243.197 163.326 241.29 163.015C239.696 162.739 238.795 161.598 239.211 160.009C239.523 158.834 240.008 157.694 240.597 156.658C244.41 149.678 248.223 142.733 252.071 135.754C252.937 134.164 253.734 132.61 254.046 130.778C254.393 128.878 255.745 128.049 257.651 128.36C259.038 128.602 259.801 129.534 259.454 130.951C259.142 132.299 259.385 133.473 259.905 134.648C261.915 139.14 263.96 143.632 265.936 148.158C267.253 151.198 268.536 154.239 269.749 157.314C270.165 158.316 270.407 159.422 270.581 160.493C270.754 161.668 270.338 162.704 269.264 163.326C268.12 163.983 266.906 163.948 265.763 163.326C264.965 162.877 264.584 162.117 264.861 161.253C265.347 159.802 264.965 158.523 264.445 157.21C263.787 155.414 263.024 153.652 262.4 151.855C262.054 150.922 261.499 150.68 260.528 150.715C258.83 150.784 257.166 150.715 255.468 150.715C255.468 150.853 255.468 150.991 255.468 151.129ZM260.043 146.707C259.558 144.392 257.027 138.276 256.022 137.205C255.19 138.863 254.289 140.418 253.596 142.042C252.903 143.701 251.62 145.117 251.169 147.121C254.22 146.983 257.062 146.845 260.009 146.707H260.043Z" fill="#3C3C3B"/>
<path d="M175.084 148.33C172.657 148.434 170.196 148.572 167.77 148.641C167.077 148.641 166.73 148.918 166.418 149.505C165.551 151.163 164.546 152.718 163.818 154.411C163.333 155.482 163.09 156.726 162.952 157.901C162.744 159.732 162.328 160.251 160.525 160.423C160.248 160.423 159.936 160.423 159.659 160.423C157.787 160.285 156.99 159.352 157.406 157.521C157.683 156.312 158.203 155.102 158.827 153.997C161.669 148.745 164.546 143.493 167.423 138.276C168.498 136.341 169.642 134.475 170.612 132.471C171.271 131.123 171.756 129.707 172.137 128.256C172.692 126.252 174.494 125.215 176.262 125.975C177.372 126.459 177.891 127.115 177.614 128.29C177.198 130.087 177.753 131.607 178.446 133.162C181.15 139.243 183.888 145.324 186.523 151.44C187.355 153.409 187.978 155.448 188.637 157.521C188.984 158.627 188.706 159.732 187.805 160.562C186.869 161.425 185.691 161.494 184.512 161.114C183.299 160.734 182.71 159.94 183.022 158.73C183.403 157.21 183.022 155.863 182.502 154.515C181.947 152.995 181.358 151.474 180.734 149.989C180.006 148.227 179.971 148.261 177.995 148.261C176.99 148.261 176.02 148.261 175.014 148.261C175.014 148.296 175.014 148.33 175.014 148.365L175.084 148.33ZM169.191 144.288H178.411C177.129 140.971 176.02 137.827 174.321 134.475C172.519 137.93 170.924 141.005 169.191 144.288Z" fill="#3C3C3B"/>
<path d="M223.751 131.78C224.929 131.297 225.865 130.847 226.836 130.467C230.51 129.016 234.323 128.325 238.275 129.051C242.677 129.88 244.549 133.542 242.504 137.516C242.018 138.483 241.394 139.485 240.597 140.211C239.141 141.524 237.651 142.837 235.952 143.839C232.555 145.912 228.812 147.156 224.825 147.743C224.271 147.812 223.716 147.95 223.092 148.089C223.058 148.849 223.023 149.471 222.988 150.093C222.919 152.062 222.78 154.032 222.78 156.001C222.78 157.141 222.85 158.316 223.023 159.422C223.369 161.564 222.815 162.289 220.596 162.324C220.18 162.324 219.765 162.324 219.383 162.289C217.511 162.013 216.818 160.907 217.338 159.076C217.581 158.247 217.789 157.383 217.823 156.554C217.997 151.337 218.101 146.154 218.205 140.936C218.205 140.004 218.17 139.209 217.407 138.414C216.541 137.516 216.61 135.996 217.546 134.89C218.482 133.819 218.655 132.713 218.378 131.366C218.066 129.949 219.037 128.843 220.596 128.636C222.295 128.36 223.266 128.982 223.543 130.502C223.612 130.847 223.647 131.158 223.716 131.78H223.751ZM223.404 143.701C228.257 142.94 232.729 141.938 236.368 138.691C236.888 138.241 237.304 137.654 237.616 137.032C238.309 135.685 237.963 134.51 236.611 133.853C235.848 133.508 234.947 133.231 234.115 133.231C230.545 133.197 227.252 134.268 224.201 136.099C223.855 136.307 223.473 136.79 223.473 137.136C223.404 139.209 223.473 141.282 223.473 143.701H223.404Z" fill="#3C3C3B"/>
<path d="M273.7 151.854C274.29 143.838 276.889 137.343 282.886 132.471C287.358 128.843 292.904 129.154 297.479 131.607C298.45 132.125 299.282 133.058 299.94 133.957C300.599 134.855 300.53 135.961 299.94 136.928C299.282 137.93 298.242 138.068 297.167 137.965C296.162 137.896 295.573 137.239 295.296 136.375C294.984 135.339 294.256 134.89 293.354 134.579C290.547 133.646 287.912 133.991 285.729 136.099C280.806 140.867 278.484 146.672 279.108 153.478C279.247 154.895 279.94 156.381 280.702 157.659C281.916 159.629 284.169 161.322 287.635 160.389C289.403 159.905 291.032 159.179 292.488 158.074C293.285 157.486 293.874 156.761 294.186 155.724C294.637 154.1 296.128 153.478 297.791 154.066C299.213 154.584 299.767 155.966 299.039 157.486C298.658 158.247 298.138 159.007 297.514 159.56C294.325 162.427 290.685 164.362 286.353 164.846C280.945 165.468 276.681 162.911 274.983 157.728C274.29 155.655 274.082 153.444 273.735 151.785L273.7 151.854Z" fill="#3C3C3B"/>
<path d="M198.62 157.28C199.279 157.28 199.729 157.314 200.18 157.28C202.745 157.038 205.275 156.796 207.84 156.52C208.568 156.451 209.296 156.14 210.024 155.967C211.376 155.656 212.624 156.52 212.867 157.867C213.144 159.457 212.069 161.115 210.717 161.046C206.038 160.804 201.428 161.633 196.818 162.083C196.194 162.152 195.535 162.152 194.911 162.048C193.282 161.737 192.45 160.493 193.039 158.973C193.525 157.729 193.663 156.52 193.698 155.241C193.906 147.122 194.148 139.037 194.148 130.917C194.148 128.533 195.57 127.254 197.892 127.669C199.348 127.911 200.353 129.155 199.903 130.571C198.897 133.716 199.383 136.894 199.209 140.073C198.932 145.221 198.793 150.37 198.62 155.518C198.62 156.036 198.62 156.554 198.62 157.314V157.28Z" fill="#3C3C3B"/>
<path d="M42.5664 62.9874C45.7207 62.5383 48.5285 61.1562 51.3708 59.8087C53.6239 58.7376 56.0504 58.8067 58.3728 59.4977C61.6311 60.4652 64.5775 62.1236 67.2119 64.2659C67.3852 64.4041 67.4892 64.5768 67.7665 64.8878C66.7613 64.8878 65.9294 64.8878 65.0975 64.8878C63.9189 64.8878 62.775 64.8187 61.5965 64.7496C60.0482 64.6805 58.9505 65.337 58.3035 66.719C57.3329 68.7921 56.0504 69.4832 53.7973 68.9303C52.1334 68.4812 50.4003 67.9974 48.8751 67.2028C46.6566 66.0971 44.5769 64.715 42.4624 63.4366C42.4971 63.2984 42.5317 63.1602 42.5664 63.022V62.9874Z" fill="#3C3C3B"/>
<path d="M92.7933 5.87345C91.9961 6.63359 91.2335 7.42828 90.3669 8.08476C86.6233 10.918 84.3355 14.7878 82.741 19.0722C82.3597 20.0397 81.9784 21.0071 81.5624 21.9746C80.8692 23.4948 79.76 24.6696 78.4428 25.6716C76.6403 27.0191 73.174 27.1919 71.4408 24.9115C71.7181 24.6005 71.9607 24.2204 72.3074 23.9095C75.635 20.8689 78.3388 17.3101 80.8345 13.5785C82.6023 10.9526 84.7861 8.70669 87.5938 7.15186C89.1883 6.25352 90.8175 5.59704 92.7933 5.87345Z" fill="#3C3C3B"/>
<path d="M86.0687 75.0806C87.8365 74.5969 89.6043 74.0786 91.4068 73.664C93.244 73.2494 94.3532 73.9404 94.6651 75.8062C94.9771 77.7066 95.0811 79.676 95.2544 81.6455C94.9424 81.6455 94.7345 81.68 94.7345 81.6455C93.6946 79.8488 92.0307 78.8813 90.1589 78.1212C89.1884 77.7411 88.2871 77.2228 87.3859 76.7046C86.8659 76.3936 86.4153 75.9444 85.93 75.5644C85.9647 75.4262 85.9993 75.2879 86.0687 75.1152V75.0806Z" fill="#3C3C3B"/>
</g>
<defs>
<clipPath id="clip0_851_117">
<rect width="371" height="190" fill="white"/>
</clipPath>
</defs>
</svg>
