<?xml version="1.0" standalone="no"?>
<!DOCTYPE svg PUBLIC "-//W3C//DTD SVG 20010904//EN"
 "http://www.w3.org/TR/2001/REC-SVG-20010904/DTD/svg10.dtd">
<svg version="1.0" xmlns="http://www.w3.org/2000/svg"
 width="78.000000pt" height="78.000000pt" viewBox="0 0 78.000000 78.000000"
 preserveAspectRatio="xMidYMid meet">

<g transform="translate(0.000000,78.000000) scale(0.100000,-0.100000)"
fill="#000000" stroke="none">
<path d="M220 701 c-38 -20 -80 -88 -80 -129 0 -45 37 -107 79 -130 101 -57
221 12 221 127 0 116 -118 187 -220 132z m146 -16 c141 -92 24 -305 -130 -237
-53 24 -76 62 -76 124 0 109 116 172 206 113z"/>
<path d="M530 650 c0 -5 7 -10 15 -10 29 0 71 -28 83 -55 30 -65 -7 -138 -78
-155 l-35 -8 34 -1 c25 -1 41 7 67 33 29 29 34 41 34 80 0 39 -5 52 -32 80
-33 34 -88 56 -88 36z"/>
<path d="M225 351 c-176 -46 -209 -183 -61 -256 143 -70 357 -4 359 112 2 52
-25 88 -87 118 -56 27 -158 40 -211 26z m201 -35 c90 -42 110 -106 54 -170
-86 -97 -321 -84 -383 22 -23 39 -17 70 21 112 36 41 92 59 182 59 59 1 86 -4
126 -23z"/>
<path d="M615 313 c50 -26 75 -54 75 -85 0 -34 -36 -74 -74 -84 -14 -3 -26
-10 -26 -15 0 -14 73 19 93 42 25 31 22 91 -5 116 -28 25 -62 43 -80 43 -7 -1
1 -8 17 -17z"/>
</g>
</svg>
