<?xml version="1.0" standalone="no"?>
<!DOCTYPE svg PUBLIC "-//W3C//DTD SVG 20010904//EN"
 "http://www.w3.org/TR/2001/REC-SVG-20010904/DTD/svg10.dtd">
<svg version="1.0" xmlns="http://www.w3.org/2000/svg"
 width="80.000000pt" height="80.000000pt" viewBox="0 0 80.000000 80.000000"
 preserveAspectRatio="xMidYMid meet">

<g transform="translate(0.000000,80.000000) scale(0.100000,-0.100000)"
fill="#000000" stroke="none">
<path d="M214 790 c-27 -11 -74 -66 -91 -110 -8 -19 -24 -42 -35 -51 -26 -20
-95 -276 -79 -292 17 -17 25 -4 81 128 37 87 49 128 46 150 -12 70 94 189 141
159 30 -19 27 -75 -6 -149 -45 -99 -54 -140 -41 -181 6 -19 20 -39 30 -44 28
-15 77 -12 112 6 29 15 31 14 57 -8 14 -13 28 -24 30 -25 2 -2 -2 -9 -9 -18
-24 -29 0 -29 30 0 l29 28 11 -27 c5 -15 19 -48 30 -74 26 -62 27 -67 15 -68
-5 -1 -19 21 -30 48 -11 28 -24 48 -30 46 -12 -4 -11 -6 17 -76 20 -49 21 -54
5 -69 -15 -16 -20 -15 -69 5 -60 25 -68 26 -68 12 0 -6 10 -14 23 -19 12 -5
35 -14 51 -20 l30 -12 -22 -22 -22 -21 -60 59 -60 59 28 29 28 28 52 -20 c65
-26 79 -9 16 18 -38 17 -44 24 -35 35 7 8 8 17 3 20 -5 3 -31 -17 -58 -45 -29
-29 -54 -47 -63 -44 -17 7 -51 -22 -51 -44 0 -18 159 -181 176 -181 15 0 44
34 44 51 0 8 36 50 79 94 71 70 93 106 57 92 -11 -5 -52 81 -43 90 2 1 22 -5
45 -15 35 -14 40 -21 35 -40 -8 -33 8 -27 57 23 24 24 52 45 63 47 11 2 25 11
31 20 9 15 2 27 -41 70 -29 29 -56 49 -60 45 -4 -4 15 -29 41 -56 33 -33 44
-51 36 -56 -16 -10 -165 138 -155 155 5 8 14 5 31 -11 13 -12 27 -19 31 -16
10 10 -38 57 -58 57 -21 0 -43 -26 -36 -44 3 -8 -17 -36 -49 -67 l-54 -53 -27
20 c-44 32 -65 81 -60 142 4 63 33 107 68 107 22 0 24 -4 23 -48 0 -36 -8 -57
-32 -92 -19 -26 -27 -47 -21 -51 12 -7 31 15 58 66 30 56 35 97 17 125 -31 47
-90 26 -125 -42 -14 -27 -14 -113 -1 -148 9 -24 7 -27 -25 -41 -46 -19 -68
-18 -88 4 -27 29 -20 87 19 174 47 105 53 149 25 177 -22 22 -60 26 -97 11z
m-98 -197 c-22 -59 -70 -172 -72 -170 -2 1 9 44 23 95 18 63 30 92 40 92 10 0
13 -6 9 -17z m600 -241 c-4 -6 -31 0 -73 18 -62 26 -90 30 -78 11 2 -5 32 -19
65 -31 34 -13 57 -27 53 -31 -5 -5 -39 3 -76 18 -85 34 -92 52 -41 104 l38 39
59 -59 c33 -32 57 -63 53 -69z m-278 -319 c-9 -12 -26 1 -89 63 -62 62 -76 81
-67 91 9 12 26 -1 89 -63 62 -62 76 -81 67 -91z"/>
</g>
</svg>
